# xmcd
#
# Track frame offsets:
#	150
#	28679
#	51693
#	80092
#	102293
#	124789
#	158231
#	177508
#	219565
#	244913
#	291871
#	314928
#	348110
#
# Disc length: 4649 seconds
#
# Revision: 1
# Processed by: cddbd v1.5.1PL0 Copyright (c) Steve Scherf et al.
# Submitted via: audiograbber 1.83.01
#
DISCID=cd12270d
DTITLE=Aynsley Lister - Live!
DYEAR=2004
DGENRE=Blues
TTITLE0=As the Cow flies
TTITLE1=Say Goodbye
TTITLE2=Balls of Steel
TTITLE3=Snake
TTITLE4=Everything I Need
TTITLE5=Angel 'O' Mine
TTITLE6=Now You're Gone
TTITLE7=Take me to the River
TTITLE8=Runnin' out on Me
TTITLE9=Sometimes it gets 2 Me
TTITLE10=Soundman
TTITLE11=Fallin' Down
TTITLE12=Daten-CD
EXTD=
EXTT0=
EXTT1=
EXTT2=
EXTT3=
EXTT4=
EXTT5=
EXTT6=
EXTT7=
EXTT8=
EXTT9=
EXTT10=
EXTT11=
EXTT12=
PLAYORDER=
